<?xml version="1.0" encoding="utf-8"?>
<svg xmlns="http://www.w3.org/2000/svg" fill="none" height="52" viewBox="0 0 86 52" width="86">
<g clipPath="url(#clip0_2058_18977)">
<path d="M60.4006 35.4214C59.6396 35.4214 59.0574 35.6281 58.6642 36.0416C58.271 36.4551 58.0361 36.9946 57.9543 37.6602H62.7089C62.5659 36.1677 61.7948 35.4214 60.4006 35.4214Z" fill="#B91414"/>
<path d="M71.6199 23.3451H64.3731C66.7019 20.9702 68.1369 17.733 68.1369 14.1781C68.1369 6.89695 62.1363 0.972168 54.7618 0.972168H22.8996C15.5252 0.972168 9.52451 6.89695 9.52451 14.1781C9.52451 17.7683 10.9851 21.0257 13.3496 23.4107C6.22032 24.0612 0.638428 29.9809 0.638428 37.1864C0.638428 44.8307 6.91486 51.0277 14.657 51.0277H71.6199C79.362 51.0277 85.6384 44.8307 85.6384 37.1864C85.6384 29.5422 79.362 23.3451 71.6199 23.3451ZM22.8996 1.95543H54.7618C61.5847 1.95543 67.1411 7.43648 67.1411 14.1781C67.1411 17.8288 65.512 21.1063 62.933 23.3451C62.1158 24.0561 61.2017 24.6662 60.2161 25.1453C59.8994 25.2965 59.5777 25.4377 59.2508 25.5638C59.2253 25.5739 59.1998 25.584 59.1691 25.594C58.8525 25.7151 58.5359 25.8209 58.209 25.9117C58.1682 25.9218 58.1273 25.9369 58.0865 25.947C57.7647 26.0378 57.4379 26.1134 57.1059 26.1739C57.06 26.184 57.0191 26.189 56.9731 26.1991C56.6361 26.2596 56.299 26.3101 55.9569 26.3403C55.9211 26.3403 55.8854 26.3403 55.8496 26.3504C55.4921 26.3806 55.1295 26.4008 54.7618 26.4008H54.4861L50.9725 30.2481V26.4008H22.8996C22.5319 26.4008 22.1693 26.3806 21.8118 26.3504C21.7761 26.3504 21.7403 26.3504 21.7046 26.3403C21.3624 26.3101 21.0202 26.2596 20.6883 26.1991C20.6423 26.189 20.6015 26.184 20.5555 26.1739C20.2236 26.1084 19.8967 26.0327 19.575 25.947C19.5341 25.9369 19.4933 25.9218 19.4524 25.9117C19.1256 25.8159 18.8038 25.71 18.4923 25.594C18.4668 25.584 18.4412 25.5739 18.4106 25.5638C18.0838 25.4377 17.762 25.2965 17.4454 25.1453C16.4597 24.6662 15.5456 24.0561 14.7285 23.3451C12.1546 21.1063 10.5204 17.8238 10.5204 14.1781C10.5204 7.43648 16.0716 1.95543 22.8996 1.95543ZM23.4818 32.8147H19.3298V43.6558H16.2657V32.8147H12.1342V30.2481H23.4818V32.8147ZM33.997 43.6558H31.0299V41.8355C30.2689 43.1263 29.1045 43.7718 27.5367 43.7718C26.8779 43.7718 26.26 43.6407 25.688 43.3785C25.116 43.1163 24.6462 42.6877 24.2887 42.0876C23.9465 41.5077 23.7729 40.7514 23.7729 39.8286V33.3542H26.7605V38.9866C26.7605 39.7379 26.9494 40.2774 27.3324 40.5951C27.7155 40.9127 28.1751 41.0741 28.7215 41.0741C29.5233 40.9733 30.1106 40.6808 30.4783 40.1917C30.846 39.7076 31.0299 39.1277 31.0299 38.447V33.3542H33.997V43.6608V43.6558ZM40.3602 43.7718C39.6606 43.7718 38.9916 43.6659 38.3583 43.4591C37.72 43.2524 37.1582 42.9347 36.6628 42.5061C36.1674 42.0775 35.7742 41.538 35.4831 40.8774C35.192 40.2219 35.049 39.4404 35.049 38.5428C35.049 36.9595 35.5393 35.6838 36.5249 34.7106C37.5055 33.7425 38.8026 33.2534 40.4062 33.2534C42.4081 33.2534 43.9198 33.9744 44.9259 35.4166L42.9086 36.8536C42.352 36.1528 41.5553 35.7897 40.5237 35.7594C39.8904 35.7594 39.3184 35.9813 38.8077 36.4301C38.297 36.8788 38.0417 37.5747 38.0417 38.5176C38.0417 39.4605 38.2817 40.1312 38.7669 40.6052C39.252 41.0791 39.8393 41.3161 40.5237 41.3161C41.5961 41.3161 42.403 40.9127 42.9495 40.111L45.0076 41.4926C44.0526 43.0104 42.5052 43.7718 40.3705 43.7718H40.3602ZM52.6425 43.6558L50.1196 39.4605L48.7816 40.8573V43.6558H45.794V29.4414H48.7816V37.257L52.6016 33.3694H55.9977L52.1777 37.3327L56.1765 43.6558H52.6476H52.6425ZM65.5069 39.4051H58.0201C58.4337 40.7867 59.3326 41.4724 60.7165 41.4724C61.7124 41.4724 62.5908 41.1094 63.3568 40.3833L64.9298 41.9515C63.842 43.1667 62.3559 43.7718 60.4663 43.7718C58.735 43.7718 57.3919 43.2726 56.442 42.2792C55.4921 41.2808 55.0172 40.0404 55.0172 38.5428C55.0172 36.894 55.5279 35.6031 56.5493 34.6653C57.5707 33.7274 58.8525 33.2584 60.3897 33.2584C61.5898 33.2584 62.5704 33.4904 63.3313 33.9492C64.1075 34.4333 64.6693 35.0888 65.0166 35.9107C65.3639 36.7326 65.5375 37.6554 65.5375 38.679L65.5171 39.4051H65.5069ZM72.8966 36.0166L72.4676 35.9964C71.9671 35.9964 71.4871 36.0822 71.0275 36.2486C70.5627 36.42 70.1848 36.7024 69.8886 37.1058C69.5924 37.5091 69.4443 38.0386 69.4443 38.6941V43.6558H66.4567V33.3492H69.4443V35.2048C70.1797 33.9291 71.3339 33.2685 72.8966 33.2332V36.0116V36.0166Z" fill="#B91414"/>
<path d="M36.3364 20.6323H33.0578L31.9904 18.0254H25.7038L24.6364 20.6323H21.4752L27.3737 7.22461H30.5349L36.3364 20.6323ZM30.9997 15.5949L28.865 10.3862L26.7098 15.5949H30.9997Z" fill="black"/>
<path d="M40.7998 20.7436C39.043 20.7436 37.5365 20.2646 36.2802 19.3065L37.2505 17.3148C38.4659 18.172 39.6763 18.6006 40.8764 18.6006C41.7548 18.6006 42.194 18.3334 42.194 17.7938C42.194 17.4762 41.9846 17.224 41.5709 17.0476C40.9836 16.8307 40.4576 16.6543 39.9878 16.5232C39.6303 16.4223 39.3239 16.3215 39.0685 16.2257C38.7213 16.0996 38.3638 15.9231 38.0012 15.7012C37.6386 15.4794 37.3424 15.1819 37.1177 14.7987C36.893 14.4205 36.7806 13.9566 36.7806 13.407C36.7806 12.6607 36.9696 12.0506 37.3424 11.5816C37.7152 11.1127 38.2157 10.7648 38.8336 10.5328C39.4516 10.3009 40.1359 10.1899 40.8968 10.1899C42.3319 10.1899 43.6903 10.5732 44.9722 11.3396L43.9457 13.3515C42.7149 12.6859 41.6578 12.3531 40.764 12.3531C39.9623 12.3531 39.5588 12.6103 39.5588 13.1196C39.5588 13.407 39.7069 13.644 40.0031 13.8255C40.2993 14.007 40.7845 14.1633 41.4586 14.2894C42.2757 14.481 43.0673 14.7987 43.8333 15.2474C44.6045 15.6962 45.0079 16.4526 45.0437 17.5266C45.0437 18.6006 44.63 19.4023 43.8027 19.9419C42.9754 20.4764 41.9744 20.7487 40.7947 20.7487L40.7998 20.7436Z" fill="black"/>
<path d="M56.0281 20.6319H52.4992L49.9763 16.4367L48.6383 17.8334V20.6319H45.6508V6.41748H48.6383V14.2331L52.4583 10.3455H55.8544L52.0344 14.3088L56.0332 20.6319H56.0281Z" fill="black"/>
</g>
<defs>
<clipPath id="clip0_2058_18977">
<rect fill="white" height="50.0556" transform="translate(0.691895 0.972168)" width="85"/>
</clipPath>
</defs>
</svg>