<?xml version="1.0" encoding="utf-8"?>
<svg xmlns="http://www.w3.org/2000/svg" fill="none" height="21" viewBox="0 0 116 21" width="116">
<path d="M26.9492 10.9059C28.1102 9.81102 29.5313 9.25879 31.2226 9.25879C31.788 9.25879 32.3184 9.31641 32.8238 9.43646C33.3292 9.55652 33.7395 9.70058 34.0648 9.87345C34.3901 10.0463 34.6703 10.2192 34.9105 10.3969C35.1507 10.5745 35.3208 10.7234 35.4309 10.8483L35.596 11.0211L33.7746 12.5482C33.7546 12.5146 33.7195 12.4762 33.6795 12.4329C33.6345 12.3849 33.5344 12.2985 33.3693 12.1736C33.2091 12.0488 33.034 11.9383 32.8589 11.8375C32.6837 11.7366 32.4385 11.6502 32.1383 11.5734C31.8331 11.4965 31.5228 11.4581 31.1976 11.4581C30.1918 11.4581 29.3561 11.7847 28.6956 12.4425C28.0351 13.0956 27.7048 13.9072 27.7048 14.8772C27.7048 15.8472 28.0351 16.6683 28.6956 17.3262C29.3561 17.9793 30.1918 18.3106 31.1976 18.3106C31.5428 18.3106 31.8731 18.2674 32.1883 18.1762C32.5036 18.0897 32.7638 17.9841 32.9689 17.8641C33.1741 17.744 33.3542 17.624 33.5044 17.4991C33.6545 17.3742 33.7696 17.2686 33.8446 17.187L33.9397 17.0477L35.6961 18.5459C35.651 18.5988 35.591 18.666 35.5159 18.7572C35.4409 18.8485 35.2657 19.0021 34.9955 19.223C34.7253 19.4439 34.4251 19.6456 34.0998 19.8137C33.7746 19.9866 33.3492 20.1402 32.8188 20.2795C32.2884 20.4187 31.728 20.4908 31.1475 20.4908C29.4562 20.4908 28.0451 19.9577 26.9142 18.8917C25.7833 17.8256 25.2179 16.5051 25.2179 14.9252C25.2179 13.3453 25.7983 12.0056 26.9543 10.9107L26.9492 10.9059Z" fill="#B91414"/>
<path d="M37.3934 20.3272V9.41211H45.76V11.4866H39.8804V13.7484H44.9493V15.6836H39.8804V18.2719H45.9251V20.332H37.3934V20.3272Z" fill="#B91414"/>
<path d="M50.21 12.9705V20.332H47.7881V9.41699H50.3551L55.6042 16.5912V9.41699H58.0261V20.332H55.6042L50.21 12.9705Z" fill="#B91414"/>
<path d="M68.264 17.2111C68.264 18.1475 67.8837 18.9254 67.1281 19.5497C66.3725 20.1739 65.3767 20.4861 64.1558 20.4861C63.6254 20.4861 63.115 20.4284 62.6196 20.3132C62.1242 20.1979 61.7189 20.0635 61.3936 19.9098C61.0684 19.7513 60.7831 19.5929 60.5329 19.4344C60.2827 19.2711 60.0976 19.1367 59.9825 19.0214L59.8174 18.8486L61.2785 17.3359C61.3135 17.3695 61.3586 17.4127 61.4236 17.4704C61.4887 17.528 61.6238 17.6288 61.829 17.7681C62.0341 17.9074 62.2493 18.0322 62.4695 18.133C62.6896 18.2387 62.9698 18.3347 63.3001 18.4212C63.6304 18.5076 63.9606 18.5556 64.2809 18.5556C64.7012 18.5556 65.0515 18.4548 65.3217 18.2531C65.5919 18.0514 65.727 17.7921 65.727 17.48C65.727 17.115 65.5419 16.7933 65.1766 16.5052C64.8063 16.2218 64.1308 15.8857 63.145 15.5015C61.3336 14.8244 60.4329 13.7824 60.4329 12.3658C60.4329 11.463 60.7931 10.7187 61.5237 10.1376C62.2493 9.5566 63.205 9.26367 64.3809 9.26367C64.8463 9.26367 65.2967 9.31169 65.732 9.41254C66.1673 9.51338 66.5276 9.62863 66.8128 9.76308C67.0981 9.89754 67.3583 10.032 67.5834 10.1665C67.8086 10.3009 67.9738 10.4162 68.0688 10.5074L68.234 10.6611L66.7728 12.1737C66.6977 12.1017 66.5927 12.0104 66.4626 11.9C66.3325 11.7895 66.0623 11.6455 65.6569 11.463C65.2516 11.2805 64.8363 11.1893 64.416 11.1893C63.9606 11.1893 63.6053 11.2901 63.3501 11.487C63.0949 11.6839 62.9698 11.9144 62.9698 12.1737C62.9698 12.4954 63.115 12.774 63.4002 13.0093C63.6854 13.2446 64.2258 13.5039 65.0164 13.7968C67.1831 14.6083 68.264 15.7464 68.264 17.2111Z" fill="#B91414"/>
<path d="M79.9741 10.8627C81.105 11.9335 81.6704 13.2589 81.6704 14.8388C81.6704 16.4186 81.0899 17.7536 79.934 18.8485C78.7731 19.9385 77.352 20.486 75.6607 20.486C73.9694 20.486 72.5583 19.9529 71.4274 18.8869C70.2965 17.8208 69.7311 16.5003 69.7311 14.9204C69.7311 13.3405 70.3115 12.0008 71.4674 10.9059C72.6283 9.81102 74.0495 9.25879 75.7408 9.25879C77.4321 9.25879 78.8432 9.79182 79.9741 10.8627ZM78.2027 17.3166C78.8682 16.6635 79.2035 15.8472 79.2035 14.8676C79.2035 13.888 78.8682 13.0908 78.2027 12.4329C77.5372 11.7799 76.7065 11.4485 75.7107 11.4485C74.715 11.4485 73.8693 11.7751 73.2088 12.4329C72.5483 13.086 72.218 13.8976 72.218 14.8676C72.218 15.8376 72.5483 16.6587 73.2088 17.3166C73.8693 17.9697 74.705 18.301 75.7107 18.301C76.7165 18.301 77.5372 17.9745 78.2027 17.3166Z" fill="#B91414"/>
<path d="M83.5322 9.41211H88.6162C89.8271 9.41211 90.8129 9.73865 91.5735 10.3965C92.3341 11.0496 92.7094 11.9044 92.7094 12.956C92.7094 13.7243 92.4942 14.4014 92.0689 14.9825C91.6385 15.5635 91.0581 15.9861 90.3225 16.2454L93.1998 20.332H90.3225L87.7705 16.572H86.0142V20.332H83.5272V9.41691L83.5322 9.41211ZM86.0192 11.4242V14.728H88.311C88.9064 14.728 89.3768 14.5743 89.7221 14.267C90.0673 13.9596 90.2425 13.5611 90.2425 13.0761C90.2425 12.5911 90.0673 12.1925 89.7221 11.8852C89.3768 11.5778 88.9064 11.4242 88.311 11.4242H86.0192Z" fill="#B91414"/>
<path d="M94.5809 20.3272V9.41211H102.947V11.4866H97.0679V13.7484H102.137V15.6836H97.0679V18.2719H103.113V20.332H94.5809V20.3272Z" fill="#B91414"/>
<path d="M108.872 9.41211C110.694 9.41211 112.19 9.92593 113.366 10.9584C114.542 11.986 115.127 13.2826 115.127 14.8384C115.127 16.3943 114.527 17.7004 113.326 18.7521C112.125 19.8037 110.614 20.3272 108.792 20.3272H104.809V9.41211H108.872ZM107.296 18.2671H108.923C110.008 18.2671 110.899 17.9453 111.605 17.3019C112.31 16.6584 112.66 15.8468 112.66 14.8672C112.66 13.8876 112.31 13.0809 111.605 12.4422C110.899 11.8035 110.008 11.4818 108.923 11.4818H107.296V18.2671Z" fill="#B91414"/>
<path d="M7.36342 18.1285C8.07898 18.1285 8.65443 17.898 9.09477 17.4418C9.53512 16.9856 9.75529 16.3805 9.75529 15.6314V9.50879H4.96155V15.6314C4.96155 16.3805 5.18172 16.9808 5.62707 17.4418C6.07241 17.898 6.65287 18.1285 7.36342 18.1285Z" fill="#B91414"/>
<path d="M14.6255 9.51367H12.1886V15.6363C12.1886 17.0289 11.7332 18.1573 10.8225 19.0217C10.262 19.5547 9.59653 19.9197 8.82593 20.1262H14.6205V9.51847L14.6255 9.51367Z" fill="#B91414"/>
<path d="M3.76614 19.0592C2.88545 18.2237 2.4401 17.1096 2.4401 15.717V9.51758H0.768799V20.1253H5.71266C4.95707 19.9284 4.30656 19.5731 3.76614 19.0592Z" fill="#B91414"/>
<path d="M17.0469 12.7979V20.121H22.4161L17.0469 12.7979Z" fill="#B91414"/>
<path d="M17.3934 9.51367L22.4424 16.4142V9.51367H17.3934Z" fill="#B91414"/>
<path d="M28.6606 1.32975V6.60719H27.1844V1.32975H25.2079V0.0908203H30.6371V1.32975H28.6606Z" fill="black"/>
<path d="M37.2795 0.0907406V3.90356C37.2795 4.73432 37.0093 5.4066 36.4639 5.92042C35.9234 6.43424 35.2179 6.69355 34.3522 6.69355C33.4865 6.69355 32.781 6.44384 32.2506 5.94443C31.7252 5.44502 31.46 4.78234 31.46 3.94678V0.0859375H32.9611V3.89876C32.9611 4.34535 33.0912 4.7055 33.3564 4.97922C33.6216 5.25294 33.9669 5.38739 34.3923 5.38739C34.8176 5.38739 35.1629 5.25294 35.4231 4.97922C35.6833 4.7055 35.8134 4.34535 35.8134 3.89876V0.0859375H37.2695L37.2795 0.0907406Z" fill="black"/>
<path d="M39.3417 0.979617C40.0323 0.326539 40.8829 0 41.8937 0C42.229 0 42.5492 0.033614 42.8495 0.105645C43.1497 0.177675 43.3949 0.264113 43.59 0.364956C43.7852 0.465798 43.9503 0.571444 44.0954 0.677089C44.2355 0.782734 44.3406 0.873972 44.4057 0.946002L44.5007 1.04684L43.4149 1.95923C43.4149 1.95923 43.3849 1.91602 43.3548 1.8872C43.3298 1.85839 43.2698 1.81037 43.1697 1.73354C43.0746 1.66151 42.9695 1.59428 42.8645 1.53185C42.7594 1.47423 42.6143 1.4214 42.4341 1.37338C42.254 1.32536 42.0638 1.30135 41.8737 1.30135C41.2732 1.30135 40.7728 1.49824 40.3825 1.8872C39.9872 2.27617 39.7921 2.76118 39.7921 3.33742C39.7921 3.91367 39.9872 4.40828 40.3825 4.79724C40.7778 5.18621 41.2732 5.38309 41.8737 5.38309C42.0789 5.38309 42.279 5.35428 42.4642 5.30626C42.6493 5.25344 42.8044 5.19101 42.9295 5.11898C43.0546 5.04695 43.1597 4.97492 43.2498 4.89809C43.3398 4.82125 43.4099 4.76363 43.4549 4.71081L43.515 4.62917L44.5608 5.52235C44.5358 5.55116 44.5007 5.59438 44.4557 5.6472C44.4107 5.70003 44.3056 5.79127 44.1455 5.92572C43.9853 6.06018 43.8052 6.17543 43.61 6.28107C43.4149 6.38192 43.1597 6.47796 42.8445 6.55959C42.5292 6.64123 42.1939 6.68445 41.8437 6.68445C40.8329 6.68445 39.9922 6.36751 39.3167 5.72884C38.6412 5.09017 38.3009 4.30263 38.3009 3.36143C38.3009 2.42023 38.6462 1.61829 39.3367 0.965211L39.3417 0.979617Z" fill="black"/>
<path d="M47.0556 3.45233V6.60728H45.5745V0.0957031H47.0556V3.06337L49.7227 0.0957031H51.5141L48.5268 3.18342L51.7093 6.60728H49.9179L47.0556 3.45233Z" fill="black"/>
<path d="M52.4375 6.60728V0.0957031H57.4314V1.33463H53.9237V2.68401H56.951V3.8365H53.9237V5.38275H57.5315V6.61208H52.4425L52.4375 6.60728Z" fill="black"/>
<path d="M58.5472 0.0908203H61.5846C62.3102 0.0908203 62.8956 0.287705 63.351 0.67667C63.8013 1.06564 64.0315 1.57465 64.0315 2.20372C64.0315 2.66472 63.9014 3.06809 63.6462 3.41383C63.391 3.75958 63.0458 4.01409 62.6054 4.16776L64.3217 6.60719H62.6054L61.0842 4.36464H60.0384V6.60719H58.5573V0.0956216L58.5472 0.0908203ZM60.0284 1.29133V3.26497H61.3945C61.7497 3.26497 62.03 3.17373 62.2401 2.99126C62.4503 2.80878 62.5504 2.56868 62.5504 2.28055C62.5504 1.99243 62.4453 1.75233 62.2401 1.56985C62.035 1.38737 61.7497 1.29613 61.3945 1.29613H60.0284V1.29133Z" fill="black"/>
<path d="M67.4126 0.979617C68.1032 0.326539 68.9538 0 69.9646 0C70.2999 0 70.6201 0.033614 70.9204 0.105645C71.2206 0.177675 71.4658 0.264113 71.661 0.364956C71.8561 0.465798 72.0212 0.571444 72.1663 0.677089C72.3065 0.782734 72.4115 0.873972 72.4766 0.946002L72.5717 1.04684L71.4858 1.95923C71.4858 1.95923 71.4558 1.91602 71.4258 1.8872C71.4007 1.85839 71.3407 1.81037 71.2406 1.73354C71.1455 1.66151 71.0405 1.59428 70.9354 1.53185C70.8303 1.47423 70.6852 1.4214 70.505 1.37338C70.3249 1.32536 70.1348 1.30135 69.9446 1.30135C69.3441 1.30135 68.8437 1.49824 68.4534 1.8872C68.0581 2.27617 67.863 2.76118 67.863 3.33742C67.863 3.91367 68.0581 4.40828 68.4534 4.79724C68.8488 5.18621 69.3441 5.38309 69.9446 5.38309C70.1498 5.38309 70.3499 5.35428 70.5351 5.30626C70.7202 5.25344 70.8753 5.19101 71.0004 5.11898C71.1255 5.04695 71.2306 4.97492 71.3207 4.89809C71.4108 4.82125 71.4808 4.76363 71.5258 4.71081L71.5859 4.62917L72.6317 5.52235C72.6067 5.55116 72.5717 5.59438 72.5266 5.6472C72.4816 5.70003 72.3765 5.79127 72.2164 5.92572C72.0563 6.06018 71.8761 6.17543 71.681 6.28107C71.4858 6.38192 71.2306 6.47796 70.9154 6.55959C70.6001 6.64123 70.2649 6.68445 69.9146 6.68445C68.9038 6.68445 68.0631 6.36751 67.3876 5.72884C66.7121 5.09017 66.3718 4.30263 66.3718 3.36143C66.3718 2.42023 66.7171 1.61829 67.4076 0.965211L67.4126 0.979617Z" fill="black"/>
<path d="M79.8556 6.60728H78.2243L77.6839 5.23869H74.9668L74.4213 6.60728H72.8701L75.6223 0.0957031H77.0984L79.8506 6.60728H79.8556ZM75.3771 4.11502H77.2685L76.3278 1.7236L75.3771 4.11502Z" fill="black"/>
<path d="M80.4844 0.0908203H83.5217C84.2473 0.0908203 84.8328 0.287705 85.2881 0.67667C85.7385 1.06564 85.9687 1.57465 85.9687 2.20372C85.9687 2.66472 85.8386 3.06809 85.5834 3.41383C85.3282 3.75958 84.9829 4.01409 84.5425 4.16776L86.2589 6.60719H84.5425L83.0214 4.36464H81.9755V6.60719H80.4944V0.0956216L80.4844 0.0908203ZM81.9655 1.29133V3.26497H83.3316C83.6869 3.26497 83.9671 3.17373 84.1773 2.99126C84.3874 2.80878 84.4875 2.56868 84.4875 2.28055C84.4875 1.99243 84.3824 1.75233 84.1773 1.56985C83.9721 1.38737 83.6869 1.29613 83.3316 1.29613H81.9655V1.29133Z" fill="black"/>
<path d="M87.075 6.60728V0.0957031H88.5561V5.34434H91.8737V6.61208H87.075V6.60728Z" fill="black"/>
<path d="M97.7839 4.74442C97.7839 5.30145 97.5588 5.76725 97.1034 6.14181C96.648 6.51637 96.0576 6.69885 95.327 6.69885C95.0118 6.69885 94.7065 6.66524 94.4113 6.59801C94.1161 6.53078 93.8709 6.44914 93.6807 6.3579C93.4856 6.26667 93.3154 6.17062 93.1653 6.07458C93.0152 5.97854 92.9051 5.89691 92.8351 5.82968L92.74 5.72884L93.6107 4.82605C93.6107 4.82605 93.6607 4.86927 93.6957 4.90289C93.7308 4.9365 93.8158 4.99412 93.9359 5.08056C94.061 5.1622 94.1861 5.23903 94.3212 5.30145C94.4513 5.36388 94.6165 5.42151 94.8166 5.47433C95.0118 5.52715 95.2069 5.55116 95.4021 5.55116C95.6523 5.55116 95.8624 5.48873 96.0226 5.36868C96.1827 5.24863 96.2627 5.09497 96.2627 4.90769C96.2627 4.6916 96.1527 4.49471 95.9325 4.32664C95.7123 4.15377 95.307 3.95688 94.7215 3.72639C93.6407 3.32301 93.1003 2.69875 93.1003 1.85359C93.1003 1.31576 93.3154 0.869171 93.7508 0.523424C94.1861 0.177677 94.7516 0 95.4571 0C95.7373 0 96.0025 0.0288115 96.2627 0.086436C96.5229 0.144061 96.7381 0.216092 96.9082 0.297727C97.0784 0.379362 97.2335 0.460996 97.3686 0.537829C97.5037 0.619464 97.5988 0.686693 97.6588 0.744317L97.7539 0.835555L96.8832 1.73834C96.8382 1.69512 96.7781 1.6423 96.6981 1.57507C96.623 1.50784 96.4629 1.4214 96.2177 1.31576C95.9775 1.20531 95.7273 1.15249 95.4771 1.15249C95.2069 1.15249 94.9918 1.21011 94.8416 1.33017C94.6915 1.45022 94.6115 1.58467 94.6115 1.73834C94.6115 1.93042 94.6965 2.09849 94.8667 2.23775C95.0368 2.37701 95.362 2.53548 95.8324 2.70835C97.1234 3.19336 97.7739 3.87045 97.7739 4.74442H97.7839Z" fill="black"/>
<path d="M104.77 0.96049C105.446 1.59916 105.786 2.3915 105.786 3.3327C105.786 4.2739 105.441 5.07104 104.75 5.72412C104.06 6.37719 103.209 6.70373 102.198 6.70373C101.187 6.70373 100.347 6.3868 99.6712 5.74813C98.9957 5.10945 98.6554 4.32192 98.6554 3.38072C98.6554 2.43952 99.0007 1.63758 99.6912 0.9845C100.382 0.331422 101.232 0.00488281 102.243 0.00488281C103.254 0.00488281 104.095 0.32662 104.77 0.965292V0.96049ZM103.714 4.81173C104.11 4.42276 104.31 3.93296 104.31 3.35191C104.31 2.77086 104.11 2.29066 103.714 1.90169C103.319 1.51272 102.819 1.31584 102.228 1.31584C101.638 1.31584 101.127 1.51272 100.737 1.90169C100.342 2.29066 100.147 2.77566 100.147 3.35191C100.147 3.92815 100.342 4.42276 100.737 4.81173C101.132 5.20069 101.628 5.39758 102.228 5.39758C102.829 5.39758 103.319 5.20069 103.714 4.81173Z" fill="black"/>
<path d="M108.343 2.2134V6.60728H106.897V0.0957031H108.428L111.56 4.37432V0.0957031H113.006V6.60728H111.56L108.343 2.2134Z" fill="black"/>
</svg>