<?xml version="1.0" encoding="utf-8"?>
<svg xmlns="http://www.w3.org/2000/svg" fill="none" height="54" viewBox="0 0 71 54" width="71">
<g clipPath="url(#clip0_2058_18984)">
<path d="M44.5328 3.8252C44.396 3.8252 44.2783 3.87059 44.1795 3.96515C44.0808 4.05594 44.0314 4.19212 44.0314 4.37369C44.0314 4.55526 44.0808 4.68765 44.1795 4.78222C44.2783 4.873 44.396 4.92218 44.5328 4.92218C44.6695 4.92218 44.7834 4.87678 44.8822 4.78222C44.981 4.69143 45.0265 4.55526 45.0265 4.37369C45.0265 4.19212 44.9772 4.05972 44.8822 3.96515C44.7834 3.87437 44.6695 3.8252 44.5328 3.8252Z" fill="#B91414"/>
<path d="M31.4566 3.76855C31.3122 3.76855 31.2021 3.81016 31.1261 3.8896C31.0502 3.96904 31.0046 4.07495 30.9894 4.19978H31.8972C31.8706 3.9123 31.7225 3.76855 31.4566 3.76855Z" fill="#B91414"/>
<path d="M37.7952 4.72208C37.7952 4.79395 37.818 4.85447 37.8673 4.89987C37.9167 4.94526 37.9965 4.97174 38.1028 4.97174C38.2396 4.97174 38.3459 4.94526 38.4219 4.88852C38.4979 4.83178 38.5473 4.75991 38.5662 4.6729V4.49512H38.118C37.9015 4.49512 37.7914 4.57077 37.7914 4.7183L37.7952 4.72208Z" fill="#B91414"/>
<path d="M47.4393 0.75H22.8259C20.9875 0.75 19.4985 2.23282 19.4985 4.06364C19.4985 5.89446 20.9875 7.37728 22.8259 7.37728H47.4393C49.2777 7.37728 50.7666 5.89446 50.7666 4.06364C50.7666 2.23282 49.2777 0.75 47.4393 0.75ZM24.2883 3.26927H23.4944V5.35732H22.9095V3.26927H22.1194V2.77374H24.2845V3.26927H24.2883ZM26.309 5.35732H25.743V5.00553C25.5987 5.25519 25.3746 5.37623 25.0783 5.37623C24.953 5.37623 24.8352 5.34975 24.7251 5.30058C24.6149 5.2514 24.5276 5.16819 24.4592 5.05092C24.3946 4.93744 24.3604 4.7937 24.3604 4.61591V3.37141H24.9302V4.45704C24.9302 4.60078 24.9682 4.7067 25.0403 4.76722C25.1125 4.82774 25.1999 4.858 25.3062 4.858C25.4582 4.83909 25.5721 4.78235 25.6405 4.68778C25.7089 4.59322 25.7468 4.48352 25.7468 4.35112V3.37141H26.3128V5.35354L26.309 5.35732ZM27.4827 5.38002C27.3497 5.38002 27.2206 5.3611 27.0991 5.31949C26.9775 5.27788 26.8712 5.21736 26.7762 5.13792C26.6812 5.05471 26.6053 4.95257 26.5521 4.82396C26.4951 4.69913 26.4685 4.54782 26.4685 4.37382C26.4685 4.06742 26.5635 3.82533 26.7496 3.63619C26.9357 3.45084 27.1826 3.35628 27.4903 3.35628C27.8739 3.35628 28.1588 3.49624 28.3525 3.77237L27.9689 4.04851C27.8625 3.91233 27.7106 3.84424 27.5131 3.83668C27.3915 3.83668 27.2814 3.87829 27.1864 3.96529C27.0877 4.05229 27.0383 4.18469 27.0383 4.36625C27.0383 4.54782 27.0839 4.67644 27.1788 4.76722C27.2738 4.858 27.3839 4.9034 27.5131 4.9034C27.7182 4.9034 27.8739 4.82774 27.9765 4.67265L28.3677 4.93744C28.1854 5.22871 27.8891 5.37623 27.4827 5.37623V5.38002ZM29.8833 5.35732L29.4009 4.55161L29.1464 4.82018V5.35732H28.5766V2.62243H29.1464V4.12795L29.8757 3.37897H30.5252L29.7959 4.14308L30.5594 5.3611H29.8871L29.8833 5.35732ZM32.4244 4.54026H30.9962C31.0759 4.80505 31.2469 4.93744 31.509 4.93744C31.6989 4.93744 31.866 4.86557 32.0141 4.72561L32.3142 5.02823C32.1053 5.26275 31.8242 5.38002 31.4634 5.38002C31.1329 5.38002 30.8784 5.28545 30.6961 5.09253C30.5138 4.89961 30.4226 4.6613 30.4226 4.37382C30.4226 4.05607 30.5214 3.80642 30.7151 3.62863C30.9088 3.44706 31.1557 3.35628 31.4482 3.35628C31.6761 3.35628 31.866 3.40167 32.0103 3.48867C32.1585 3.58324 32.2648 3.70807 32.3332 3.86694C32.3978 4.02581 32.432 4.2036 32.432 4.4003V4.54026H32.4244ZM33.8108 3.88964H33.731C33.636 3.88585 33.5449 3.90098 33.4575 3.93503C33.3702 3.96907 33.298 4.02203 33.241 4.10147C33.184 4.17712 33.1574 4.27925 33.1574 4.40786V5.3611H32.5877V3.37897H33.1574V3.73833C33.298 3.49245 33.5183 3.36762 33.8146 3.36006V3.89342L33.8108 3.88964ZM36.1202 5.40271C35.7289 5.40271 35.4061 5.2741 35.1478 5.02066C34.8895 4.76722 34.7604 4.44569 34.7604 4.06364C34.7604 3.68159 34.8933 3.37519 35.1554 3.12175C35.4175 2.86831 35.7479 2.7397 36.143 2.7397C36.538 2.7397 36.8684 2.88344 37.1647 3.17092L36.8229 3.58702C36.6139 3.36006 36.3898 3.24658 36.1506 3.24658C35.9302 3.24658 35.7441 3.32223 35.5922 3.46976C35.4403 3.61728 35.3643 3.81398 35.3643 4.05229C35.3643 4.15442 35.3795 4.25277 35.4137 4.35112C35.4479 4.44947 35.4972 4.53648 35.5618 4.61213C35.6264 4.68778 35.7099 4.75209 35.8087 4.79748C35.9075 4.84287 36.0214 4.86557 36.1544 4.86557C36.386 4.86557 36.6102 4.76344 36.8267 4.55917L37.1723 4.92988C36.8494 5.24006 36.5 5.39515 36.124 5.39515L36.1202 5.40271ZM38.5701 5.3611V5.13036C38.4334 5.30058 38.2245 5.38758 37.9434 5.38758C37.7876 5.38758 37.6585 5.3611 37.5559 5.30436C37.4534 5.24762 37.3812 5.17197 37.3318 5.0774C37.2825 4.98283 37.2597 4.8807 37.2597 4.76722C37.2597 4.59322 37.3204 4.45326 37.442 4.34356C37.5635 4.23764 37.7573 4.17712 38.0193 4.16955H38.5663C38.5663 4.04094 38.5321 3.95016 38.4638 3.88964C38.3954 3.82911 38.2928 3.80263 38.1523 3.80263C37.9776 3.80263 37.78 3.85937 37.5597 3.97664L37.3812 3.58702C37.6661 3.43571 37.9662 3.36006 38.2814 3.36006C38.5739 3.36006 38.7866 3.42815 38.9234 3.56054C39.0601 3.69294 39.1285 3.86316 39.1285 4.0712V5.36489H38.5739L38.5701 5.3611ZM40.5529 3.88964H40.4731C40.3781 3.88585 40.287 3.90098 40.1996 3.93503C40.1122 3.96907 40.0401 4.02203 39.9831 4.10147C39.9261 4.17712 39.8995 4.27925 39.8995 4.40786V5.3611H39.3298V3.37897H39.8995V3.73833C40.0401 3.49245 40.2604 3.36762 40.5566 3.36006V3.89342L40.5529 3.88964ZM41.2821 5.38758C41.1796 5.38758 41.0846 5.36489 40.9897 5.31949C40.8947 5.2741 40.8187 5.20223 40.758 5.1001C40.6972 4.99796 40.6668 4.86557 40.6668 4.70291V2.62243H41.2328V4.66509C41.2328 4.80883 41.2935 4.8807 41.4113 4.8807C41.4721 4.8807 41.5328 4.86179 41.605 4.82396L41.662 5.2968C41.5328 5.35732 41.4037 5.3838 41.2859 5.3838L41.2821 5.38758ZM43.1585 5.22871C42.999 5.33084 42.8091 5.3838 42.585 5.3838C42.2507 5.3838 41.962 5.29301 41.7227 5.10766L41.9089 4.72561C42.1406 4.89205 42.3723 4.97149 42.6002 4.97149C42.7673 4.97149 42.8509 4.91853 42.8509 4.8164C42.8509 4.75587 42.8129 4.7067 42.7331 4.67265C42.6192 4.63104 42.5204 4.597 42.433 4.57052C42.3647 4.55161 42.3077 4.53269 42.2583 4.51378C42.1899 4.49108 42.1254 4.45704 42.0532 4.41543C41.9848 4.37382 41.9279 4.31708 41.8861 4.24143C41.8443 4.16955 41.8215 4.07877 41.8215 3.97285C41.8215 3.82911 41.8557 3.71185 41.9279 3.62106C42 3.53028 42.095 3.46219 42.2127 3.42058C42.3305 3.37519 42.4634 3.35249 42.6078 3.35249C42.8812 3.35249 43.1395 3.42436 43.3864 3.57189L43.1889 3.95772C42.9534 3.82911 42.7521 3.76481 42.5812 3.76481C42.4292 3.76481 42.3533 3.81398 42.3533 3.91233C42.3533 3.96907 42.3837 4.01446 42.4368 4.04851C42.4938 4.08255 42.585 4.11281 42.7141 4.13929C42.8699 4.17712 43.0218 4.23764 43.1661 4.32465C43.3143 4.41165 43.3902 4.55539 43.3978 4.76344C43.3978 4.97149 43.3181 5.12279 43.1623 5.22871H43.1585ZM45.5325 4.74831C45.4907 4.86935 45.4261 4.97905 45.3388 5.07362C45.2514 5.16819 45.1413 5.24384 45.0083 5.30058C44.8754 5.35732 44.7159 5.3838 44.5297 5.3838C44.298 5.3838 44.1005 5.33841 43.9448 5.24762C43.7777 5.14927 43.6561 5.02444 43.5763 4.87314C43.4966 4.72183 43.4586 4.55161 43.4586 4.37004C43.4586 4.15064 43.5042 3.96529 43.6029 3.81398C43.7055 3.65889 43.8384 3.54163 44.0018 3.46976C44.1651 3.39789 44.3398 3.36006 44.5297 3.36006C44.8336 3.36006 45.0881 3.44706 45.2894 3.61728C45.4945 3.7875 45.5933 4.04094 45.5933 4.37004C45.5933 4.49865 45.5743 4.62726 45.5325 4.74831ZM47.7394 5.3611H47.1696V4.27925C47.1696 4.16199 47.1392 4.06742 47.0784 3.99177C47.0177 3.91611 46.9189 3.8745 46.7784 3.8745C46.6188 3.89342 46.5011 3.94638 46.4289 4.04094C46.3567 4.13551 46.3226 4.24899 46.3226 4.38139V5.35732H45.7528V3.37519H46.3226V3.7232C46.4669 3.47732 46.6948 3.35249 47.0101 3.35249C47.1354 3.35249 47.2532 3.37897 47.3633 3.42815C47.4735 3.47732 47.5646 3.56054 47.6368 3.67402C47.7052 3.7875 47.7394 3.93125 47.7394 4.11281V5.35732V5.3611Z" fill="#B91414"/>
<path d="M6.27254 15.0032L5.37233 14.7346C4.76079 14.5379 3.8074 14.2315 3.8074 13.4447C3.8074 12.6579 4.66963 12.3137 5.31915 12.3137C6.18138 12.3137 7.00942 12.673 7.65894 13.2102L9.06433 10.4866C7.86025 9.80574 6.18517 9.37451 4.81776 9.37451C2.10194 9.37451 0.138184 11.1675 0.138184 13.91C0.138184 16.6524 1.59675 17.0988 3.8112 17.7267C4.2822 17.8591 5.00009 18.0444 5.47108 18.4L9.61889 18.6156C9.58471 16.486 8.14133 15.5479 6.27634 14.9994L6.27254 15.0032Z" fill="black"/>
<path d="M19.4459 15.416H19.4801L20.6272 19.1949L20.9919 19.2138L26.6552 19.5089L29.7927 9.73438H26.1196L23.5671 18.461H23.5292L20.8665 9.73438H18.0595L15.2145 18.461H15.1804L12.8216 9.73438H9.14856L11.8492 18.7334L18.2039 19.0663L19.4459 15.416Z" fill="black"/>
<path d="M32.5807 16.2552C32.5807 14.3903 34.309 12.6881 36.4133 12.6881C38.5176 12.6881 40.2458 14.3903 40.2458 16.2552C40.2458 18.1201 39.1481 19.5651 37.6401 20.0795L42.7907 20.3481C43.5086 19.1944 43.9188 17.7985 43.9188 16.2363C43.9188 12.151 40.318 9.28369 36.4133 9.28369C32.5086 9.28369 28.9077 12.151 28.9077 16.2363C28.9077 17.5035 29.1774 18.6572 29.6598 19.6634L34.818 19.932C33.4999 19.3192 32.5769 17.9536 32.5769 16.2552H32.5807Z" fill="black"/>
<path d="M48.0023 18.0478H48.0365L49.7457 20.7146L53.9809 20.934L51.493 17.7073C53.4188 17.3669 54.4633 15.7554 54.4633 13.8906C54.4633 11.0044 52.4312 9.7334 49.7495 9.7334H44.4774V20.4384L48.0061 20.6238V18.0478H48.0023ZM48.0023 12.4191H48.3441C49.4951 12.4191 50.7903 12.6347 50.7903 14.1024C50.7903 15.5701 49.4951 15.7857 48.3441 15.7857H48.0023V12.4153V12.4191Z" fill="black"/>
<path d="M59.5181 14.9649H59.556L64.6496 21.4938L69.5419 21.751V9.7334H66.0171V17.9948H65.9791L59.5181 9.7334H55.9894V21.0399L59.5181 21.2252V14.9649Z" fill="black"/>
<path d="M11.1572 35.218C10.3292 35.271 9.51633 35.3239 8.73007 35.3769C8.46798 35.3958 8.20589 35.4109 7.9476 35.426C7.7387 35.4412 7.52979 35.4525 7.32088 35.4677C7.08158 35.4828 6.84608 35.4979 6.61438 35.513V38.142H14.3364V35.165H11.9093C11.746 35.1764 11.5902 35.1877 11.4307 35.1953C11.3395 35.2029 11.2522 35.2066 11.161 35.2142L11.1572 35.218Z" fill="black"/>
<path d="M25.4538 38.1416H28.9825V34.0449C26.8098 34.1887 24.6714 34.3286 22.5861 34.4686L25.4538 38.1454V38.1416Z" fill="black"/>
<path d="M15.6135 34.9268C15.5527 34.9306 15.4919 34.9344 15.4312 34.9381V38.1421H18.9598V34.7036C18.1204 34.7604 17.2923 34.8133 16.4757 34.8663C16.187 34.8852 15.9021 34.9041 15.6135 34.923V34.9268Z" fill="black"/>
<path d="M30.2065 38.1419H37.9286V35.165H33.7352V33.7275C32.5539 33.807 31.3764 33.8826 30.2065 33.9621V38.1419Z" fill="black"/>
<path d="M51.6943 38.1416H55.223L54.3455 32.3579C53.2364 32.4336 52.1159 32.5054 50.9878 32.5811L51.6943 38.1416Z" fill="black"/>
<path d="M43.9679 33.0505L46.0076 38.142H47.413L49.7072 32.6685C48.2145 32.7668 46.7065 32.8689 45.1948 32.9673C44.7883 32.9938 44.3819 33.0202 43.9717 33.0467L43.9679 33.0505Z" fill="black"/>
<path d="M41.5781 33.2094C41.1109 33.2397 40.6437 33.27 40.1765 33.304C40.074 33.3116 39.9676 33.3191 39.8651 33.3229C39.584 33.3418 39.3067 33.3608 39.0256 33.3797L38.2128 38.1421H41.7225L42.4517 33.1489C42.391 33.1527 42.3302 33.1565 42.2694 33.1603C42.0415 33.1754 41.8098 33.1905 41.5819 33.2057L41.5781 33.2094Z" fill="black"/>
<path d="M60.3696 31.9567C59.9973 31.9832 59.6175 32.0059 59.2414 32.0324C59.0895 32.0437 58.9376 32.0513 58.7856 32.0627V38.1414H62.3143V31.8281C61.9307 31.8546 61.5433 31.8811 61.152 31.9038C60.8937 31.9227 60.6316 31.9378 60.3696 31.9567Z" fill="black"/>
<path d="M6.53837 19.5386C6.53837 20.4881 5.65715 20.9004 4.82911 20.9004C3.62503 20.9004 2.58048 20.2724 1.69926 19.5008L0.183716 22.334C1.57012 23.3024 3.2414 23.8736 4.95446 23.8736C6.32187 23.8736 7.74246 23.4953 8.806 22.6026C9.88473 21.6872 10.2114 20.3103 10.2114 18.9636C10.2114 18.9372 10.2114 18.9145 10.2114 18.888L6.06358 18.6724C6.34846 18.888 6.54597 19.1679 6.54597 19.5386H6.53837Z" fill="black"/>
<path d="M21.2157 19.4624L22.4464 23.5137H26.0472L27.2475 19.7764L21.5803 19.4813L21.2157 19.4624Z" fill="black"/>
<path d="M13.7902 23.5143H17.3721L18.7926 19.3345L12.438 19.0054L13.7902 23.5143Z" fill="black"/>
<path d="M37.0051 20.5602C36.4391 20.5602 35.8997 20.4316 35.4135 20.2046L30.2554 19.936C31.4367 22.4061 33.9132 23.9646 37.0089 23.9646C39.8045 23.9646 42.0987 22.6898 43.3863 20.6207L38.2357 20.3521C37.8483 20.4845 37.4381 20.5602 37.0089 20.5602H37.0051Z" fill="black"/>
<path d="M51.9587 23.514H56.3496L54.5682 21.2066L50.3368 20.9834L51.9587 23.514Z" fill="black"/>
<path d="M45.0649 23.5143H48.5936V20.8929L45.0649 20.7075V23.5143Z" fill="black"/>
<path d="M56.5819 23.514H60.1106V21.4941L56.5819 21.3125V23.514Z" fill="black"/>
<path d="M66.6065 23.5136H70.1352V22.0194L65.2391 21.7622L66.6065 23.5136Z" fill="black"/>
<path d="M7.19565 35.2703C7.45394 35.2552 7.71603 35.2362 7.97811 35.2211C8.76817 35.1682 9.57722 35.1152 10.4053 35.0622C10.4964 35.0547 10.5838 35.0509 10.675 35.0433C10.8345 35.032 10.994 35.0206 11.1535 35.0131H9.38731V32.6829H13.3642V29.706H9.38731V27.4477H13.5807V24.4707H5.86243V35.3535C6.09413 35.3384 6.32963 35.3233 6.56892 35.3081C6.77783 35.293 6.98294 35.2816 7.19565 35.2665V35.2703Z" fill="black"/>
<path d="M15.7237 34.7153C16.5404 34.6624 17.3684 34.6056 18.2079 34.5527V29.7108H18.2421L21.8353 34.3144C23.9206 34.1782 26.0591 34.0345 28.2318 33.8907V24.4756H24.7031V32.737H24.6689L18.2079 24.4756H14.6792V34.7834C14.74 34.7796 14.8007 34.7759 14.8615 34.7721C15.1464 34.7532 15.4351 34.7343 15.7237 34.7153Z" fill="black"/>
<path d="M32.9833 32.6839H36.9601V29.7069H32.9833V27.4487H37.1767V24.4717H29.4546V33.8074C30.6245 33.7317 31.7982 33.6523 32.9833 33.5728V32.6801V32.6839Z" fill="black"/>
<path d="M39.4246 33.1489C39.8918 33.1187 40.359 33.0884 40.8262 33.0544C41.0541 33.0392 41.2858 33.0241 41.5137 33.009C41.5745 33.0052 41.6352 33.0014 41.696 32.9976L42.1024 30.2098H42.1404L43.2154 32.8955C43.6218 32.869 44.032 32.8425 44.4384 32.8161C45.9502 32.7139 47.4581 32.6156 48.9509 32.5172L49.9157 30.2136H49.9499L50.2309 32.434C51.3591 32.3584 52.4796 32.2827 53.5887 32.2108L52.415 24.479H48.9053L45.9882 31.7002L43.2344 24.479H39.7627L38.2699 33.2284C38.551 33.2095 38.8283 33.1905 39.1093 33.1716C39.2119 33.1641 39.3182 33.1565 39.4208 33.1527L39.4246 33.1489Z" fill="black"/>
<path d="M59.6178 31.8027C59.8799 31.7837 60.1382 31.7686 60.4003 31.7497C60.7915 31.7232 61.1752 31.6967 61.5626 31.674V31.5L66.565 24.4756H62.3375L59.8002 28.1486L57.2629 24.4756H53.0353L58.0377 31.5V31.9086C58.1897 31.8972 58.3416 31.8897 58.4935 31.8783C58.8734 31.8518 59.2494 31.8291 59.6216 31.8027H59.6178Z" fill="black"/>
<path d="M17.4331 42.0762H20.3503V39.103H10.9911V42.0762H13.9082V42.916L17.4331 43.2337V42.0762Z" fill="#B91414"/>
<path d="M27.1864 42.0573C28.8273 42.0573 30.2365 43.0937 30.7796 44.4328L34.6388 44.7808C34.1905 41.1418 30.8252 38.6528 27.1864 38.6528C24.0071 38.6528 21.0292 40.5555 20.0341 43.4682L23.9198 43.8162C24.5959 42.7911 25.8076 42.0573 27.1864 42.0573Z" fill="#B91414"/>
<path d="M38.7021 39.103H35.1772V44.83L38.7021 45.1478V39.103Z" fill="#B91414"/>
<path d="M47.0176 39.103H43.4927V45.5752L47.0176 45.893V39.103Z" fill="#B91414"/>
<path d="M57.7966 43.2602C57.7966 40.374 55.7644 39.103 53.0828 39.103H47.8107V45.9648L55.9316 46.6949C57.147 46.0367 57.7966 44.7279 57.7966 43.2602ZM51.6774 45.1591H51.3356V41.7887H51.6774C52.8283 41.7887 54.1235 42.0044 54.1235 43.472C54.1235 44.9397 52.8283 45.1553 51.6774 45.1553V45.1591Z" fill="#B91414"/>
<path d="M17.1239 52.7999V43.4188L13.5952 43.1011V52.7999H17.1239Z" fill="#B91414"/>
<path d="M26.8749 53.2505C31.2317 53.2505 34.3805 50.1676 34.3805 45.7948C34.3805 45.5111 34.3615 45.2388 34.3273 44.9664L30.4682 44.6184C30.6201 44.9967 30.7113 45.3976 30.7113 45.8099C30.7113 48.1401 28.983 49.8423 26.8787 49.8423C24.7744 49.8423 23.0462 48.1401 23.0462 45.8099C23.0462 45.1669 23.2551 44.5427 23.6121 44.0018L19.7264 43.6538C19.4985 44.3196 19.3732 45.0345 19.3732 45.7948C19.3732 50.1676 22.522 53.2505 26.8787 53.2505H26.8749Z" fill="#B91414"/>
<path d="M36.2875 51.6538C37.4195 52.7659 39.2009 53.1593 40.7848 53.1593C42.3687 53.1593 44.1502 52.7659 45.2859 51.6538C46.6343 50.345 46.7065 48.6238 46.7065 46.8876V46.0819L43.1778 45.7641V46.4034C43.1778 48.1586 43.0524 50.0764 40.7848 50.0764C38.5172 50.0764 38.3918 48.1586 38.3918 46.4034V45.3329L34.8632 45.0151V46.8876C34.8632 48.6276 34.9353 50.345 36.2837 51.6538H36.2875Z" fill="#B91414"/>
<path d="M51.0253 52.7994V47.602H51.0632L54.3906 52.7994H58.7815L54.516 47.2615C54.9262 47.1897 55.2908 47.0573 55.6175 46.8795L47.4966 46.1494V52.7994H51.0253Z" fill="#B91414"/>
</g>
<defs>
<clipPath id="clip0_2058_18984">
<rect fill="white" height="52.5" transform="translate(0.191895 0.75)" width="70"/>
</clipPath>
</defs>
</svg>