<?xml version="1.0" encoding="utf-8"?>
<svg xmlns="http://www.w3.org/2000/svg" data-name="Layer 2" id="Layer_2" viewBox="0 0 765.49 415.25">
  <defs>
    <style>
      .cls-1 {
        fill: #fff;
      }
    </style>
  </defs>
  <g data-name="Layer 1" id="Layer_1-2">
    <g>
      <path d="M383.75,415.25c-2.1,0-4.21-.5-6.12-1.49L8.2,222.26C3.15,219.65,.01,214.49,0,208.82c-.01-5.68,3.1-10.84,8.13-13.48h0S377.57,1.52,377.57,1.52c3.88-2.04,8.51-2.03,12.39,.01l367.43,193.81c5.01,2.64,8.11,7.8,8.1,13.47-.01,5.66-3.14,10.81-8.17,13.43l-367.42,191.5c-1.93,1-4.04,1.5-6.15,1.5Z"/>
      <g>
        <g>
          <path class="cls-1" d="M325.01,309.3c3.91,0,6.32,1.59,7.81,4.71l4.18-4.08c-2.95-3.88-6.64-5.59-12.05-5.59-7.51,0-11.86,4-11.86,9.15,0,4.83,3.07,7.29,11.17,8.91,4.78,.97,6.32,1.9,6.32,3.47,0,2.2-2.02,3.39-5.76,3.39s-6.68-.97-8.96-4.74l-3.59,4.3c2.46,3.51,6.18,5.4,12.78,5.4,6.95,0,11.91-3.25,11.91-8.71,0-4.83-2.95-7.25-10.76-8.69-5.1-.93-6.68-1.98-6.68-3.91,0-2.07,1.83-3.61,5.49-3.61Z"/>
          <polygon class="cls-1" points="364.04 316.68 351.25 316.68 351.25 304.77 345.19 304.77 345.19 333.78 351.25 333.78 351.25 321.56 364.04 321.56 364.04 333.78 370.11 333.78 370.11 304.77 364.04 304.77 364.04 316.68"/>
          <path class="cls-1" d="M392.73,304.33c-8.61,0-13.98,5.63-13.98,14.94s5.37,14.94,13.98,14.94,13.93-5.63,13.93-14.94-5.3-14.94-13.93-14.94Zm0,24.92c-4.88,0-7.69-3.52-7.69-9.98s2.81-9.98,7.69-9.98,7.66,3.52,7.66,9.98-2.81,9.98-7.66,9.98Z"/>
          <polygon class="cls-1" points="441.47 328.98 435.59 304.77 429.78 304.77 423.99 328.98 418.36 304.77 411.81 304.77 420.24 333.78 427.24 333.78 431.24 317.95 432.6 311.11 432.68 311.11 434.05 317.95 438.09 333.78 444.9 333.78 453.33 304.77 447.1 304.77 441.47 328.98"/>
        </g>
        <g>
          <polygon class="cls-1" points="347.28 108.43 353.36 108.43 353.36 84.27 363.08 84.27 363.08 79.38 337.51 79.38 337.51 84.27 347.28 84.27 347.28 108.43"/>
          <polygon class="cls-1" points="376.69 96.2 389.5 96.2 389.5 108.43 395.58 108.43 395.58 79.38 389.5 79.38 389.5 91.31 376.69 91.31 376.69 79.38 370.62 79.38 370.62 108.43 376.69 108.43 376.69 96.2"/>
          <polygon class="cls-1" points="428.09 103.55 411.77 103.55 411.77 96.15 424.14 96.15 424.14 91.48 411.77 91.48 411.77 84.27 427.48 84.27 427.48 79.38 405.69 79.38 405.69 108.43 428.09 108.43 428.09 103.55"/>
        </g>
        <g>
          <path class="cls-1" d="M204.9,145.33l9.88-.07,.25,43.41c-2.44,1.01-5.57,1.69-9.46,2.11v4.9h31.26v-4.9c-3.89-.42-7.1-1.1-9.46-2.11l.16-43.33,9.96-.07c3.46,4.56,6.09,10.13,9.04,15.19l5.66-1.77-4.31-20.52h-53.39l-4.38,20.52,5.82,1.77c2.79-5.06,5.49-10.56,8.95-15.12Z"/>
          <path class="cls-1" d="M313.35,173.3l.25-27.03c1.69-.76,4.05-1.44,6.25-1.86v-6.25h-23.39v6.25c3.62,.5,6.42,1.35,8.78,2.52l.25,27.87c.09,12.5-3.21,14.86-14.78,14.86s-14.61-1.95-14.52-14.43l.25-28.3c2.36-1.17,4.99-2.02,8.7-2.52v-6.25h-27.87v6.25c1.95,.33,4.65,1.01,6.25,1.6l.25,26.77c.07,17.39,9.62,23.89,24.83,23.89s24.67-6.58,24.74-23.39Z"/>
          <path class="cls-1" d="M351.65,196.69c9.8,0,19.6-5.23,24.83-10.89l-2.02-5.49c-4.9,3.8-14.79,9.37-22.97,9.37-9.89,0-14.79-4.56-14.95-24.07-.16-16.22,4.31-20.52,12.16-20.52,4.65,0,10.47,1.28,13.35,2.45,2.96,4.05,5.66,8.45,8.02,12.92l5.75-1.77-4.4-20.52h-5.32l-.77,2.36c-3.12-1.77-8.43-3.37-13.77-3.37-15.53,0-28.88,11.57-28.88,30.99,0,17.14,13.51,28.54,28.97,28.54Z"/>
          <path class="cls-1" d="M403.92,168.56l.09-22.29c2.11-.94,4.63-1.69,7.68-2.11v-6h-28.13v6.25c2.29,.33,5.84,1.1,7.78,1.6l.16,42.65c-2.2,1.01-4.65,1.6-7.95,2.11v4.9h28.13v-4.65c-2.96-.5-5.75-1.35-7.86-2.52v-11.15c2.88-2.54,5.66-5.06,8.45-7.69l16.31,26.02h17.23v-4.9c-2.61-.42-4.99-1.17-6.76-2.2l-17.48-27.53c5.15-4.9,10.31-9.88,15.28-14.86,1.86-.67,4.4-1.35,6.59-1.77v-6.25h-23.06v6c2.29,.25,4.56,.67,6.67,1.43-7.43,7.78-15.19,15.55-23.14,22.97Z"/>
          <path class="cls-1" d="M507.29,177.77l-5.66-1.68c-3.03,5.14-6.07,9.37-9.62,13.34l-20.61,.18,.09-20.2,11.57,.5c.68,2.2,1.19,5.08,1.6,7.6h5.49l.34-21.12h-5.93c-.42,2.38-.92,5.08-1.51,7.1l-11.57,.09,.09-18.41,19.17-.18c3.12,3.39,6,8.11,8.87,12.93l5.75-1.78-3.89-17.98h-50.34v6.25c2.54,.33,5.66,1.1,7.78,1.6l.16,42.65c-2.2,1.01-4.65,1.6-7.94,2.11v4.9h51.78l4.38-17.91Z"/>
          <path class="cls-1" d="M542.71,190.78c-3.3-.5-6.09-1.35-8.29-2.54l.09-16.22h8.36l14.86,23.66h17.73v-4.9c-2.52-.34-5.41-1.1-7.68-2.2l-11.4-17.73c8.7-2.36,13.93-8.02,13.93-16.22,0-10.31-9.46-16.47-24.32-16.47h-31.84v6.25c2.54,.33,5.66,1.01,7.78,1.6l.16,42.65c-2.2,1.01-4.65,1.6-7.94,2.11v4.9h28.56v-4.9Zm-8.11-45.19l11.57-.07c9.03-.09,10.72,1.6,10.81,10.56,.09,8.27-1.78,9.53-11.82,9.53h-10.65l.09-20.02Z"/>
        </g>
        <g>
          <path class="cls-1" d="M195.29,268.73c-9.89,0-14.79-4.56-14.95-24.07-.16-16.22,4.31-20.52,12.16-20.52,4.65,0,10.47,1.28,13.35,2.45,2.96,4.05,5.66,8.45,8.02,12.92l5.75-1.77-4.4-20.52h-5.32l-.77,2.36c-3.12-1.77-8.44-3.37-13.77-3.37-15.53,0-28.88,11.57-28.88,30.99,0,17.14,13.51,28.54,28.97,28.54,9.8,0,19.6-5.23,24.83-10.89l-2.02-5.49c-4.9,3.8-14.79,9.37-22.97,9.37Z"/>
          <path class="cls-1" d="M261.61,217.21h-12.5c-7.17,16.47-14.02,33.35-20.52,50.51-2.03,1.01-3.89,1.51-5.91,2.02v4.99h23.14v-5.24c-2.87-.16-6.16-.5-8.7-1.17l4.14-12.09h23.14l4.57,12.09c-2.63,.67-5.84,1.01-8.54,1.17v5.24h27.62v-4.9c-2.03-.42-3.89-1.01-5.82-2.02-6.5-17.15-13.44-34.21-20.61-50.59Zm-18.07,32.52c2.87-7.86,5.73-15.71,8.69-23.4,3.3,7.77,6.5,15.55,9.64,23.4h-18.33Z"/>
          <path class="cls-1" d="M321.32,251.07l14.87,23.66h17.73v-4.9c-2.52-.34-5.41-1.1-7.68-2.2l-11.4-17.73c8.7-2.36,13.93-8.02,13.93-16.22,0-10.31-9.46-16.47-24.32-16.47h-31.84v6.25c2.54,.33,5.66,1.01,7.77,1.6l.18,42.65c-2.2,1.01-4.65,1.6-7.95,2.11v4.9h28.56v-4.9c-3.3-.5-6.09-1.35-8.29-2.54l.09-16.22h8.36Zm-8.27-26.43l11.57-.07c9.03-.09,10.72,1.6,10.81,10.56,.07,8.27-1.78,9.53-11.82,9.53h-10.65l.09-20.02Z"/>
          <path class="cls-1" d="M395.74,268.31l-17.06,.16,.18-42.65c2.18-1.1,5.23-1.86,8.95-2.36v-6.25h-29.4v6.25c2.54,.33,5.66,1.1,7.78,1.6l.16,42.65c-2.2,1.01-4.65,1.6-7.95,2.11v4.9h48.14l4.74-19.59-5.75-1.78c-2.88,5.32-6.34,10.65-9.8,14.95Z"/>
          <path class="cls-1" d="M447.12,240.94c-6.34-1.44-10.65-2.61-13.1-3.8-2.87-1.44-3.46-2.7-3.3-6.16,.25-5.41,2.88-6.94,7.86-6.94,3.89,0,9.8,1.19,12.92,2.29,2.7,3.3,4.83,6.34,6.85,10.47l5.66-1.77-3.62-17.82h-5.41l-.68,2.11c-3.46-1.6-8.11-3.04-13.77-3.04-10.97,0-22.04,6.5-22.04,18.07,0,10.05,6.92,14.2,20.6,17.4,6.34,1.51,10.23,2.7,12.67,3.96,2.97,1.44,3.3,2.88,3.13,6.34-.34,5.06-3.04,7.01-8.02,7.01s-12.67-1.6-17.24-3.3c-2.96-3.71-5.06-6.76-7.43-10.56l-5.66,1.6,4.56,17.91h5.32l.68-2.03c4.4,1.78,10.38,3.13,16.47,3.13,12.07,0,23.48-6.16,23.48-17.82,0-9.96-7.19-14.11-19.93-17.06Z"/>
          <path class="cls-1" d="M502.78,216.2c-16.9,0-30.07,11.48-30.07,30.99,0,17.57,13.6,28.54,30.16,28.54s29.89-11.23,29.89-28.88c0-19.17-13.01-30.65-29.98-30.65Zm1.35,52.78c-14.11,.34-17.15-4.13-17.73-25.17-.34-15.53,3.12-19.17,15.19-19.42,14.2-.34,17.06,3.39,17.66,25.6,.34,14.52-3.37,18.67-15.12,18.99Z"/>
          <path class="cls-1" d="M576.99,223.46c3.37,.33,5.82,.92,8.02,1.68l.43,36.41-28.22-44.34h-23.14v6.25c2.61,.33,5.98,1.01,8.27,1.6l-.42,42.65c-2.2,1.01-4.65,1.6-7.86,2.11v4.9h23.55v-4.9c-3.12-.5-6.07-1.35-8.27-2.54l-.67-40.36,30.81,47.8h12.25l.85-49.66c1.78-.59,4.48-1.28,6.5-1.6v-6.25h-22.13v6.25Z"/>
        </g>
      </g>
    </g>
  </g>
</svg>