<?xml version="1.0" encoding="utf-8"?>
<svg xmlns="http://www.w3.org/2000/svg" fill="none" height="62" viewBox="0 0 96 62" width="96">
<g clipPath="url(#clip0_2410_7274)">
<path d="M1.31394 26.1708V27.4454H0.0627441V23.4688H1.31394V24.7376H4.80708V26.1765H1.31394V26.1708Z" fill="black"/>
<path d="M2.9954 19.9569V21.6563H4.80708V23.0951H0.0627441V21.6563H1.74421V19.9569H0.0627441V18.5181H4.80708V19.9569H2.9954Z" fill="black"/>
<path d="M0.0627441 18.1438V14.541H1.25732V16.7049H1.81215V14.592H3.00673V16.7049H3.61251V14.541H4.80708V18.1438H0.0627441Z" fill="black"/>
<path d="M9.9364 17.8322H6.59045V14.541H17.0303V17.8322H13.707V27.009H9.9364V17.8322Z" fill="black"/>
<path d="M17.6191 14.5413H21.4462V21.7581C21.4462 22.9534 22.0633 23.905 23.6146 23.905C25.1658 23.905 25.7603 22.9534 25.7603 21.7581V14.5413H29.5875V21.8657C29.5875 24.97 27.8154 27.2302 23.6089 27.2302C19.4024 27.2302 17.6134 24.97 17.6134 21.8827V14.5356L17.6191 14.5413Z" fill="black"/>
<path d="M30.1819 20.7838C30.1819 16.9318 33.1316 14.3374 36.9418 14.3374C40.3047 14.3374 41.9465 16.2464 42.6939 17.9628L39.4442 19.4753C39.1271 18.5009 38.1533 17.6626 36.9418 17.6626C35.2207 17.6626 34.0091 19.0448 34.0091 20.7838C34.0091 22.5229 35.2207 23.9051 36.9418 23.9051C38.159 23.9051 39.1271 23.0667 39.4442 22.0924L42.6939 23.5878C41.9635 25.2533 40.3047 27.2302 36.9418 27.2302C33.1316 27.2302 30.1819 24.6131 30.1819 20.7838Z" fill="black"/>
<path d="M47.7665 22.6189L47.0758 23.5535V27.009H43.2996V14.541H47.0758V19.2144L50.3425 14.541H54.9567L50.2463 20.336L55.1605 27.009H50.5633L47.7609 22.6189H47.7665Z" fill="black"/>
<path d="M55.4039 14.5411H64.8586V17.6794H59.1802V19.1352H64.7284V22.2734H59.1802V23.8595H64.8586V26.9978H55.4039V14.5298V14.5411Z" fill="black"/>
<path d="M70.6787 23.0097H69.3142V27.009H65.538V14.541H72.1903C75.106 14.541 76.6742 16.484 76.6742 18.8235C76.6742 20.9704 75.423 22.1147 74.4322 22.6019L76.6912 27.0147H72.3941L70.673 23.0154L70.6787 23.0097ZM71.6128 17.6849H69.3142V19.8715H71.6128C72.2469 19.8715 72.847 19.458 72.847 18.7669C72.847 18.0758 72.2469 17.6849 71.6128 17.6849Z" fill="black"/>
<path d="M0.0627441 35.3478C0.0627441 31.4958 3.01239 28.9014 6.82258 28.9014C10.1855 28.9014 11.8273 30.8104 12.5747 32.5268L9.32496 34.0392C9.00792 33.0649 8.03414 32.2265 6.82258 32.2265C5.10148 32.2265 3.88992 33.6087 3.88992 35.3478C3.88992 37.0868 5.10148 38.469 6.82258 38.469C8.0398 38.469 9.00792 37.6307 9.32496 36.6563L12.5747 38.1518C11.8443 39.8172 10.1855 41.7942 6.82258 41.7942C3.01239 41.7942 0.0627441 39.1771 0.0627441 35.3478Z" fill="black"/>
<path d="M21.1915 39.9642H16.4075L15.9206 41.573H11.8273L16.4245 29.105H21.1688L25.7659 41.573H21.6727L21.1858 39.9642H21.1915ZM17.3813 36.8259H20.2233L18.8023 32.4358L17.3813 36.8259Z" fill="black"/>
<path d="M31.15 37.5683H29.7856V41.5676H26.0094V29.0996H32.6617C35.5773 29.0996 37.1456 31.0426 37.1456 33.3821C37.1456 35.529 35.8944 36.6733 34.9036 37.1605L37.1626 41.5733H32.8655L31.1444 37.574L31.15 37.5683ZM32.0842 32.2435H29.7856V34.4301H32.0842C32.7183 34.4301 33.3184 34.0166 33.3184 33.3255C33.3184 32.6344 32.7183 32.2435 32.0842 32.2435Z" fill="black"/>
<path d="M37.7513 29.105H41.5276V38.2818H46.2549V41.573H37.757V29.105H37.7513Z" fill="black"/>
<path d="M48.5478 37.0074C49.482 37.9025 50.8804 38.6162 52.5618 38.6162C53.2695 38.6162 53.9432 38.3726 53.9432 37.8855C53.9432 37.3983 53.4224 37.1547 52.1882 36.9338C50.1331 36.5599 46.9966 36.0728 46.9966 32.9515C46.9966 30.8386 48.7517 28.9126 52.1712 28.9126C54.2093 28.9126 56.038 29.4904 57.459 30.6517L55.4435 33.3254C54.3622 32.504 52.9581 32.0905 51.9674 32.0905C51.0332 32.0905 50.8294 32.4247 50.8294 32.7419C50.8294 33.2291 51.3333 33.3934 52.6581 33.62C54.7132 33.9768 57.7591 34.5716 57.7591 37.4493C57.7591 40.3269 55.721 41.7828 52.3807 41.7828C49.7254 41.7828 47.9138 40.9954 46.589 39.8001L48.5478 36.9961V37.0074Z" fill="black"/>
<path d="M64.7397 28.8955C68.5895 28.8955 71.5562 31.5126 71.5562 35.3419C71.5562 39.1713 68.5839 41.7883 64.7397 41.7883C60.8956 41.7883 57.9233 39.1713 57.9233 35.3419C57.9233 31.5126 60.8956 28.8955 64.7397 28.8955ZM64.7397 32.2207C62.928 32.2207 61.7505 33.6029 61.7505 35.3419C61.7505 37.081 62.928 38.4632 64.7397 38.4632C66.5514 38.4632 67.729 37.081 67.729 35.3419C67.729 33.6029 66.5514 32.2207 64.7397 32.2207Z" fill="black"/>
<path d="M75.9099 34.8776V41.5676H72.1337V29.0996H76.0175L80.3485 35.3817V29.0996H84.1247V41.5676H80.5014L75.9042 34.8776H75.9099Z" fill="black"/>
<path d="M0.0627441 49.5322H3.83897V62.0002H0.0627441V49.5322Z" fill="#B91414"/>
<path d="M8.29456 55.3102V62.0002H4.51834V49.5322H8.40213L12.7332 55.8144V49.5322H16.5094V62.0002H12.886L8.2889 55.3102H8.29456Z" fill="#B91414"/>
<path d="M20.4498 52.8234H17.1039V49.5322H27.5437V52.8234H24.2204V62.0002H20.4498V52.8234Z" fill="#B91414"/>
<path d="M28.2344 49.5318H37.6891V52.6701H32.0106V54.1259H37.5589V57.2641H32.0106V58.8502H37.6891V61.9885H28.2344V49.5205V49.5318Z" fill="#B91414"/>
<path d="M43.5091 58.0009H42.1447V62.0002H38.3685V49.5322H45.0207C47.9364 49.5322 49.5046 51.4752 49.5046 53.8147C49.5046 55.9616 48.2535 57.1059 47.2627 57.5931L49.5216 62.0059H45.2245L43.5035 58.0066L43.5091 58.0009ZM44.4433 52.6761H42.1447V54.8627H44.4433C45.0773 54.8627 45.6775 54.4492 45.6775 53.7581C45.6775 53.067 45.0773 52.6761 44.4433 52.6761Z" fill="#B91414"/>
<path d="M48.5705 49.5322H52.8506L55.5398 57.9273L58.229 49.5322H62.5091L57.912 62.0002H53.1676L48.5705 49.5322Z" fill="#B91414"/>
<path d="M62.7526 49.5322H66.5288V62.0002H62.7526V49.5322Z" fill="#B91414"/>
<path d="M67.2138 49.5318H76.6685V52.6701H70.99V54.1259H76.5383V57.2641H70.99V58.8502H76.6685V61.9885H67.2138V49.5205V49.5318Z" fill="#B91414"/>
<path d="M85.9307 54.9363L84.3229 62.0002H80.3655L76.7987 49.5322H81.0222L82.6301 57.1569L84.5154 49.5322H87.3574L89.2427 57.1569L90.8279 49.5322H95.0684L91.5017 62.0002H87.5443L85.9364 54.9363H85.9307Z" fill="#B91414"/>
<path d="M0.0627441 47.4419V43.6636H95.0627V47.4419H0.0627441Z" fill="black"/>
<path d="M9.40988 10.8422H4.63724L4.15035 12.4453H0.0627441L4.65422 0H9.3929L13.9787 12.451H9.89111L9.40422 10.8479L9.40988 10.8422ZM5.60535 7.70397H8.44177L7.02639 3.31951L5.61102 7.70397H5.60535Z" fill="#B91414"/>
<path d="M14.5222 0H23.96V3.13824H18.2871V4.59406H23.8297V7.7323H18.2871V12.4566H14.5166V0H14.5222Z" fill="#B91414"/>
<path d="M27.9853 3.28552H24.645V0H35.0735V3.28552H31.7502V12.451H27.9796V3.28552H27.9853Z" fill="#B91414"/>
<path d="M35.7642 0H45.2019V3.13824H39.5291V4.59406H45.0717V7.7323H39.5291V9.31841H45.2019V12.4566H35.7642V0Z" fill="#B91414"/>
<path d="M51.0219 8.45738H49.6575V12.451H45.8869V0H52.5279C55.4379 0 57.0061 1.94299 57.0061 4.27117C57.0061 6.41809 55.7549 7.55669 54.7698 8.04386L57.0288 12.451H52.7373L51.0219 8.45738ZM51.9561 3.13824H49.6632V5.31914H51.9561C52.5902 5.31914 53.1846 4.91128 53.1846 4.22019C53.1846 3.5291 52.5902 3.13824 51.9561 3.13824Z" fill="#B91414"/>
</g>
<defs>
<clipPath id="clip0_2410_7274">
<rect fill="white" height="62" transform="translate(0.0627441)" width="95"/>
</clipPath>
</defs>
</svg>